<svg width="44" height="43" viewBox="0 0 44 43" fill="none" xmlns="http://www.w3.org/2000/svg">
<path d="M7.52098 41.7946C7.53672 41.795 7.55222 41.7982 7.56657 41.8041C7.58092 41.81 7.59383 41.8184 7.60456 41.8289L7.82025 42.0446C7.65283 42.2191 7.4459 42.3588 7.21362 42.4539C6.94161 42.5577 6.64846 42.6078 6.35356 42.6009C6.07644 42.6061 5.80111 42.5594 5.54472 42.4637C5.31344 42.3758 5.10564 42.2437 4.93539 42.0764C4.76164 41.9029 4.6278 41.6996 4.54176 41.4784C4.44753 41.2318 4.40101 40.9723 4.40426 40.7113C4.40043 40.4486 4.45073 40.1875 4.55254 39.9417C4.64673 39.7191 4.7888 39.5158 4.97044 39.3436C5.15455 39.1749 5.37478 39.0423 5.61751 38.9539C5.88306 38.8604 6.16583 38.8138 6.45062 38.8167C6.71515 38.8108 6.97828 38.8534 7.22441 38.9417C7.43794 39.0259 7.63401 39.1428 7.80407 39.2873L7.62343 39.5177C7.61096 39.5339 7.59544 39.548 7.5776 39.5593C7.55629 39.5726 7.53053 39.5787 7.5048 39.5765C7.47682 39.5747 7.44985 39.5663 7.42662 39.552L7.32956 39.4907L7.19475 39.4123C7.13656 39.3832 7.0762 39.3578 7.01411 39.3363C6.93414 39.3103 6.85213 39.2898 6.76876 39.275C6.66296 39.2573 6.55549 39.2491 6.44792 39.2505C6.24285 39.2482 6.03934 39.2832 5.84938 39.3534C5.67223 39.4185 5.51232 39.5171 5.38025 39.6427C5.24582 39.7762 5.14222 39.9329 5.07559 40.1034C4.99966 40.2985 4.96224 40.5043 4.96505 40.7113C4.96181 40.9214 4.99923 41.1305 5.07559 41.3289C5.14138 41.498 5.24306 41.6537 5.37486 41.7872C5.49835 41.9117 5.65141 42.0089 5.82242 42.0715C5.99841 42.1379 6.18732 42.1712 6.37782 42.1696C6.48787 42.1711 6.59787 42.1646 6.70675 42.15C6.88454 42.1302 7.05508 42.0741 7.20553 41.9858C7.281 41.9405 7.35224 41.8897 7.41853 41.8338C7.44624 41.8098 7.4827 41.7958 7.52098 41.7946Z" fill="#AFB1B8"/>
<path d="M13.7489 40.7108C13.7523 40.9709 13.7029 41.2292 13.6033 41.473C13.5154 41.6941 13.377 41.8958 13.1972 42.0648C13.0174 42.2338 12.8002 42.3662 12.5599 42.4533C12.0321 42.6363 11.4486 42.6363 10.9207 42.4533C10.682 42.3648 10.4663 42.2321 10.2872 42.0636C10.1074 41.8916 9.96801 41.6882 9.87735 41.4657C9.68314 40.972 9.68314 40.4325 9.87735 39.9388C9.96932 39.7162 10.1086 39.5122 10.2872 39.3384C10.4678 39.1752 10.6835 39.0476 10.9207 38.9635C11.4479 38.7772 12.0327 38.7772 12.5599 38.9635C12.7994 39.0519 13.0161 39.1846 13.1962 39.3531C13.3737 39.5235 13.5121 39.7243 13.6033 39.9437C13.7032 40.1892 13.7526 40.4492 13.7489 40.7108ZM13.1827 40.7108C13.187 40.5028 13.1523 40.2956 13.0803 40.0981C13.0199 39.929 12.9216 39.7729 12.7918 39.6399C12.6654 39.5139 12.5097 39.4152 12.3362 39.3507C11.9526 39.2167 11.528 39.2167 11.1445 39.3507C10.9709 39.4152 10.8153 39.5139 10.6889 39.6399C10.5572 39.7722 10.458 39.9284 10.3977 40.0981C10.2605 40.4971 10.2605 40.9246 10.3977 41.3235C10.4585 41.4931 10.5577 41.6492 10.6889 41.7818C10.8154 41.907 10.9711 42.0049 11.1445 42.0685C11.5287 42.1991 11.9519 42.1991 12.3362 42.0685C12.5096 42.0049 12.6652 41.907 12.7918 41.7818C12.9211 41.6484 13.0192 41.4925 13.0803 41.3235C13.1526 41.1261 13.1873 40.9189 13.1827 40.7108Z" fill="#AFB1B8"/>
<path d="M17.9978 41.3532L18.0544 41.4904C18.076 41.4414 18.0949 41.3973 18.1164 41.3532C18.137 41.3071 18.1604 41.2621 18.1865 41.2184L19.5642 38.942C19.5912 38.9028 19.6154 38.8783 19.6424 38.8709C19.679 38.8608 19.7174 38.8566 19.7556 38.8587H20.1627V42.5613H19.6801V39.8388C19.6801 39.8045 19.6801 39.7653 19.6801 39.7237C19.6775 39.6812 19.6775 39.6387 19.6801 39.5962L18.2944 41.9046C18.2768 41.9391 18.2486 41.9684 18.2132 41.9888C18.1779 42.0092 18.1368 42.02 18.0949 42.0197H18.0167C17.9747 42.0203 17.9335 42.0097 17.898 41.9892C17.8626 41.9687 17.8345 41.9393 17.8172 41.9046L16.391 39.5815C16.391 39.6256 16.391 39.6698 16.391 39.7139C16.391 39.758 16.391 39.7972 16.391 39.8315V42.5539H15.9246V38.8587H16.3317C16.3699 38.8566 16.4082 38.8608 16.4449 38.8709C16.4783 38.886 16.505 38.9111 16.5204 38.942L17.9277 41.2209C17.9554 41.263 17.9788 41.3073 17.9978 41.3532Z" fill="#AFB1B8"/>
<path d="M23.1825 41.1692V42.5562H22.6433V38.8585H23.8458C24.0727 38.8546 24.2991 38.8818 24.5171 38.9394C24.6916 38.9843 24.8534 39.0629 24.9916 39.1697C25.1114 39.2699 25.2037 39.394 25.2612 39.5324C25.3249 39.6832 25.356 39.8438 25.3529 40.0053C25.3553 40.1675 25.3213 40.3284 25.2531 40.4782C25.1883 40.6201 25.0887 40.7466 24.9619 40.8482C24.8236 40.9595 24.661 41.043 24.4847 41.0933C24.2748 41.1542 24.0553 41.1832 23.835 41.179L23.1825 41.1692ZM23.1825 40.7723H23.835C23.9767 40.7739 24.1178 40.7549 24.2529 40.7159C24.3643 40.6818 24.467 40.6277 24.5548 40.5566C24.6358 40.4888 24.6986 40.405 24.7382 40.3116C24.7823 40.2128 24.8043 40.107 24.8029 40.0004C24.8091 39.8976 24.7907 39.7948 24.7488 39.6992C24.7069 39.6035 24.6425 39.5174 24.5602 39.4466C24.3542 39.3004 24.0955 39.2296 23.835 39.2481H23.1825V40.7723Z" fill="#AFB1B8"/>
<path d="M30.4294 42.5612H30.0034C29.9607 42.5626 29.9187 42.5505 29.8848 42.5268C29.8542 42.5038 29.8302 42.4744 29.8147 42.4411L29.448 41.5466H27.6066L27.2265 42.4411C27.2125 42.4738 27.1893 42.5025 27.1591 42.5244C27.1248 42.5495 27.0818 42.5625 27.0378 42.5612H26.6118L28.2294 38.8582H28.7902L30.4294 42.5612ZM27.7603 41.1863H29.2809L28.6392 39.6791C28.5902 39.5658 28.5496 39.4495 28.5179 39.3311L28.4559 39.5247C28.437 39.5836 28.4155 39.6375 28.3966 39.6816L27.7603 41.1863Z" fill="#AFB1B8"/>
<path d="M32.7591 38.8754C32.7913 38.8915 32.819 38.9141 32.8399 38.9416L35.1989 41.7329C35.1989 41.6887 35.1989 41.6446 35.1989 41.603C35.1989 41.5613 35.1989 41.5197 35.1989 41.4804V38.8582H35.6815V42.5612H35.4119C35.3736 42.5622 35.3357 42.5547 35.3014 42.5391C35.2681 42.5215 35.2388 42.4982 35.2151 42.4705L32.8588 39.6817C32.8614 39.7241 32.8614 39.7666 32.8588 39.8091C32.8588 39.8508 32.8588 39.8875 32.8588 39.9218V42.5612H32.3762V38.8582H32.662C32.6953 38.8574 32.7285 38.8632 32.7591 38.8754Z" fill="#AFB1B8"/>
<path d="M39.6552 41.0884V42.5588H39.116V41.0884L37.625 38.8584H38.1076C38.1492 38.8561 38.1903 38.8674 38.2235 38.8902C38.2529 38.914 38.2775 38.9422 38.2963 38.9735L39.2292 40.4121C39.267 40.4733 39.2993 40.5297 39.3263 40.5836C39.3532 40.6375 39.3748 40.689 39.3937 40.7405L39.4638 40.5812C39.4899 40.5229 39.5206 40.4664 39.5554 40.4121L40.4748 38.9637C40.4942 38.9348 40.5178 38.9084 40.5449 38.8853C40.5769 38.8599 40.6184 38.8467 40.6609 38.8486H41.1489L39.6552 41.0884Z" fill="#AFB1B8"/>
<path d="M17.731 32.6443C17.9655 32.6712 18.2028 32.6933 18.4427 32.7129C22.0805 31.2337 25.1579 28.8127 27.2903 25.7526C29.4228 22.6924 30.5155 19.1289 30.4321 15.5073L26.423 11.8633C27.2382 15.7191 26.8569 19.705 25.3218 23.3751C23.7867 27.0452 21.1584 30.2546 17.731 32.6443Z" fill="#AFB1B8"/>
<path d="M16.2993 32.4748L16.4072 32.4944C20.0698 30.1132 22.8622 26.788 24.4233 22.9488C25.9844 19.1097 26.2424 14.9331 25.164 10.9592L19.4537 5.76904C21.7634 10.0353 22.693 14.8098 22.1346 19.5374C21.5762 24.265 19.5527 28.7514 16.2993 32.4748Z" fill="#AFB1B8"/>
<path d="M35.6651 19.7861C34.695 23.7654 32.3388 27.3541 28.9465 30.0196C27.9558 30.8023 26.8872 31.4996 25.7544 32.1025C28.5167 31.3646 31.0557 30.0598 33.1755 28.289C35.2953 26.5181 36.9394 24.3284 37.981 21.8887L35.6651 19.7861Z" fill="#AFB1B8"/>
<path d="M34.7567 19.2002L31.4594 16.2031C31.3963 19.6201 30.3276 22.9594 28.3642 25.8739C26.4009 28.7885 23.6146 31.1718 20.2949 32.7764H20.3111C21.0509 32.7761 21.79 32.736 22.5246 32.6563C25.627 31.5053 28.3676 29.6742 30.502 27.3262C32.6364 24.9782 34.0981 22.1865 34.7567 19.2002Z" fill="#AFB1B8"/>
<path d="M16.7767 3.5803L12.8431 0C9.32665 1.23513 6.30235 3.40643 4.16601 6.22973C2.02968 9.05304 0.880846 12.3968 0.869873 15.8234H0.869873C0.883052 19.6097 2.28512 23.2838 4.85416 26.2643C7.42321 29.2448 11.0125 31.3614 15.0539 32.2791C18.6616 28.2838 20.7739 23.347 21.0837 18.186C21.3935 13.025 19.8848 7.90862 16.7767 3.5803Z" fill="#AFB1B8"/>
<path d="M43.8451 18.649C43.8309 14.1568 41.8613 9.85223 38.3666 6.67574C34.8718 3.49924 30.1361 1.70898 25.1938 1.69605C22.91 1.6939 20.6456 2.07696 18.5156 2.82576L42.5996 24.7166C43.4242 22.7815 43.8466 20.7241 43.8451 18.649Z" fill="#AFB1B8"/>
</svg>
