<svg width="94" height="46" viewBox="0 0 94 46" fill="none" xmlns="http://www.w3.org/2000/svg">
<path d="M47.6095 21.3533C47.1714 20.7432 46.9618 20.022 47.0116 19.2962V16.3135C47.0116 15.3992 47.2098 14.7044 47.6062 14.2291C48.0026 13.7537 48.6834 13.517 49.6487 13.5191C50.5557 13.5191 51.1996 13.7213 51.5803 14.1259C51.9956 14.6421 52.1977 15.2733 52.1514 15.91V16.6109H50.5288V15.9009C50.5346 15.6685 50.5189 15.4361 50.4818 15.2061C50.4585 15.0488 50.3768 14.9033 50.25 14.7934C50.0834 14.675 49.8735 14.6175 49.6621 14.6326C49.4398 14.6176 49.2194 14.6782 49.044 14.8025C48.9027 14.9243 48.8085 15.0838 48.7752 15.2576C48.7287 15.5011 48.7073 15.7479 48.7114 15.995V19.6147C48.6858 19.964 48.7574 20.3134 48.9197 20.6312C49.0004 20.7387 49.1125 20.824 49.2435 20.8775C49.3745 20.9311 49.5194 20.9508 49.6621 20.9346C49.87 20.9501 50.0762 20.8912 50.2366 20.7708C50.3688 20.6523 50.4538 20.4976 50.4784 20.3308C50.5163 20.0907 50.5332 19.8482 50.5288 19.6056V18.8714H52.1514V19.5419C52.1969 20.2056 51.9998 20.8644 51.5904 21.4171C51.2175 21.86 50.5826 22.0815 49.6487 22.0815C48.7148 22.0815 48.0093 21.8449 47.6095 21.3533Z" fill="#AFB1B8"/>
<path d="M54.3652 21.3837C53.9554 20.9194 53.7505 20.2428 53.7505 19.3477V16.2104C53.7505 15.3244 53.9554 14.6538 54.3652 14.1987C54.7751 13.7436 55.4604 13.517 56.4211 13.5191C57.3752 13.5191 58.0571 13.7456 58.4669 14.1987C58.8767 14.6538 59.085 15.3244 59.085 16.2104V19.3477C59.085 20.2337 58.8767 20.9134 58.4602 21.3806C58.0436 21.8479 57.3651 22.0815 56.4211 22.0815C55.4772 22.0815 54.7784 21.8449 54.3652 21.3837ZM57.177 20.6312C57.3237 20.3404 57.3906 20.0219 57.3718 19.7027V15.8615C57.3906 15.5485 57.3249 15.2361 57.1803 14.9512C57.098 14.8414 56.9832 14.7547 56.8489 14.7011C56.7147 14.6474 56.5664 14.629 56.4211 14.6478C56.2754 14.6294 56.1268 14.6481 55.9921 14.7017C55.8575 14.7553 55.742 14.8417 55.6586 14.9512C55.5108 15.2353 55.4439 15.5481 55.4637 15.8615V19.7209C55.4433 20.0402 55.5102 20.3591 55.6586 20.6494C55.7532 20.7473 55.8698 20.8257 56.0008 20.8795C56.1317 20.9332 56.2739 20.961 56.4178 20.961C56.5616 20.961 56.7038 20.9332 56.8347 20.8795C56.9657 20.8257 57.0824 20.7473 57.177 20.6494V20.6312Z" fill="#AFB1B8"/>
<path d="M61.0368 13.6106H62.7836L64.0971 19.3992L65.4408 13.6106H67.1406L67.312 21.9658H66.0556L65.9212 16.159L64.6245 21.9658H63.6167L62.273 16.1378L62.1487 21.9658H60.8789L61.0368 13.6106Z" fill="#AFB1B8"/>
<path d="M69.2703 13.6106H71.9914C73.5591 13.6106 74.3429 14.4014 74.3429 15.9831C74.3429 17.498 73.5176 18.2544 71.8671 18.2524H70.9399V21.9658H69.2603L69.2703 13.6106ZM71.595 17.1814C71.7609 17.2005 71.9295 17.1867 72.089 17.1411C72.2485 17.0956 72.3951 17.0193 72.5188 16.9175C72.7114 16.6353 72.7964 16.3039 72.7607 15.974C72.7694 15.7191 72.7423 15.4642 72.68 15.2155C72.6561 15.1324 72.614 15.0545 72.5564 14.9863C72.4987 14.918 72.4265 14.8608 72.3441 14.8181C72.1109 14.7171 71.8532 14.6711 71.595 14.6846H70.9433V17.1814H71.595Z" fill="#AFB1B8"/>
<path d="M76.765 13.6106H78.5689L80.4199 21.9658H78.8545L78.4883 20.0393H76.8792L76.503 21.9658H74.9141L76.765 13.6106ZM78.3069 19.0715L77.6787 15.5644L77.0505 19.0715H78.3069Z" fill="#AFB1B8"/>
<path d="M81.915 13.6106H83.0908L85.3415 18.3768V13.6106H86.7357V21.9658H85.617L83.3528 16.9903V21.9658H81.9116L81.915 13.6106Z" fill="#AFB1B8"/>
<path d="M90.001 18.7801L88.1299 13.6223H89.7054L90.8476 16.9354L91.9192 13.6223H93.4612L91.6135 18.7801V21.9658H90.001V18.7801Z" fill="#AFB1B8"/>
<path d="M50.2032 25.6189V26.0558H48.8326V29.4509H48.2582V26.0558H46.8809V25.6189H50.2032Z" fill="#AFB1B8"/>
<path d="M54.4997 29.4512H54.0563C54.0112 29.4537 53.9668 29.4407 53.932 29.4148C53.8984 29.3925 53.8727 29.362 53.8581 29.3268L53.4617 28.4166H51.5603L51.1638 29.3268C51.1526 29.3649 51.1319 29.4001 51.1034 29.43C51.0682 29.4554 51.024 29.4683 50.9791 29.4664H50.5356L52.2153 25.6345H52.7999L54.4997 29.4512ZM51.7181 28.0283H53.3038L52.6319 26.4688C52.5823 26.3509 52.5408 26.2303 52.5076 26.1078C52.4841 26.1806 52.4639 26.2504 52.4438 26.3111L52.3833 26.4719L51.7181 28.0283Z" fill="#AFB1B8"/>
<path d="M57.3955 29.0748C57.5007 29.0798 57.6061 29.0798 57.7113 29.0748C57.8021 29.0664 57.892 29.0512 57.98 29.0293C58.0623 29.0111 58.1431 28.9878 58.2219 28.9595C58.2958 28.9322 58.3697 28.8988 58.447 28.8655V28.0037H57.7751C57.7585 28.0046 57.7418 28.0023 57.7262 27.9971C57.7106 27.9919 57.6964 27.9838 57.6844 27.9734C57.6734 27.9648 57.6646 27.954 57.6588 27.9419C57.653 27.9299 57.6503 27.9167 57.6508 27.9036V27.6093H58.9542V29.0779C58.8478 29.1466 58.7355 29.2075 58.6183 29.2599C58.4985 29.3133 58.3737 29.357 58.2454 29.3904C58.108 29.4269 57.9676 29.4533 57.8255 29.4693C57.6626 29.4856 57.4989 29.4937 57.335 29.4936C57.0453 29.4958 56.7578 29.4473 56.4885 29.351C56.237 29.2596 56.0085 29.1234 55.8166 28.9504C55.6296 28.7757 55.4823 28.5695 55.3832 28.3436C55.2774 28.0896 55.2249 27.8199 55.2287 27.5486C55.2252 27.2755 55.2764 27.0041 55.3799 26.7475C55.4765 26.5204 55.624 26.3138 55.8132 26.1406C56.0049 25.9682 56.2335 25.833 56.4851 25.7431C56.7728 25.6454 57.0781 25.597 57.3854 25.6005C57.5418 25.6003 57.6979 25.6115 57.8524 25.6339C57.9889 25.654 58.1228 25.6865 58.2521 25.731C58.3696 25.7709 58.4822 25.8217 58.5881 25.8827C58.691 25.9426 58.7887 26.0095 58.8803 26.083L58.7191 26.3197C58.7064 26.3413 58.6876 26.3594 58.6646 26.3722C58.6415 26.3851 58.6151 26.392 58.5881 26.3925C58.5509 26.3914 58.5148 26.3809 58.4839 26.3621C58.4335 26.3379 58.3798 26.3075 58.3193 26.2711C58.2479 26.2307 58.1725 26.1961 58.0942 26.1679C57.9941 26.1317 57.8907 26.1032 57.7852 26.083C57.6445 26.0596 57.5016 26.0484 57.3585 26.0496C57.1369 26.0474 56.9168 26.0834 56.7102 26.1558C56.5232 26.2235 56.3548 26.3271 56.2164 26.4592C56.0771 26.597 55.9708 26.7592 55.9039 26.9356C55.7539 27.3507 55.7539 27.7981 55.9039 28.2131C55.9775 28.3933 56.0919 28.5576 56.2399 28.6955C56.3776 28.827 56.5448 28.9304 56.7303 28.999C56.9439 29.0652 57.1704 29.091 57.3955 29.0748Z" fill="#AFB1B8"/>
<path d="M62.75 29.014H64.5842V29.4509H62.189V25.6189H62.7634L62.75 29.014Z" fill="#AFB1B8"/>
<path d="M66.4924 29.4509H65.918V25.6189H66.4924V29.4509Z" fill="#AFB1B8"/>
<path d="M68.6289 25.6371C68.663 25.6547 68.6927 25.6785 68.7162 25.7069L71.1718 28.5955C71.1685 28.5501 71.1685 28.5045 71.1718 28.459C71.1718 28.4165 71.1718 28.374 71.1718 28.3346V25.6038H71.6724V29.4512H71.3835C71.3407 29.4543 71.2977 29.447 71.2592 29.43C71.2243 29.4109 71.1936 29.3862 71.1685 29.3571L68.7162 26.4716C68.7162 26.5171 68.7162 26.5595 68.7162 26.602C68.7162 26.6445 68.7162 26.684 68.7162 26.7204V29.4512H68.2358V25.6189H68.5348C68.5672 25.619 68.5993 25.6252 68.6289 25.6371Z" fill="#AFB1B8"/>
<path d="M75.9019 25.6189V26.0406H73.8661V27.3059H75.5156V27.7124H73.8661V29.0202H75.9019V29.4419H73.2749V25.6189H75.9019Z" fill="#AFB1B8"/>
<path d="M15.7063 1.95391L41.2137 8.49527V31.4173L15.7063 24.879V1.95391ZM14.0703 0V25.9925L42.8463 33.3743V7.38482L14.0703 0Z" fill="#AFB1B8"/>
<path d="M29.4929 45.4402L0.713623 38.0522V12.0625L29.4929 19.4474V45.4402Z" fill="#AFB1B8"/>
<path d="M14.5473 1.65958L39.722 8.11891L29.0159 17.7912L3.83779 11.3288L14.5473 1.65958ZM14.0703 0L0.713623 12.0631L29.4929 19.4478L42.8462 7.38469L14.0703 0Z" fill="#AFB1B8"/>
<path d="M31.1121 43.978L42.8461 33.3774L31.1121 30.3647V43.978Z" fill="#AFB1B8"/>
</svg>
