<svg width="84" height="43" viewBox="0 0 84 43" fill="none" xmlns="http://www.w3.org/2000/svg">
<path d="M13.2391 12.8306H13.2362C10.8649 12.8306 8.94263 14.6177 8.94263 16.8223V16.8249C8.94263 19.0295 10.8649 20.8167 13.2362 20.8167H13.2391C15.6104 20.8167 17.5327 19.0295 17.5327 16.8249V16.8223C17.5327 14.6177 15.6104 12.8306 13.2391 12.8306Z" fill="#AFB1B8"/>
<path d="M44.9304 11.5545C44.9237 8.49242 43.6125 5.55752 41.2839 3.39207C38.9553 1.22661 35.7988 0.00695286 32.5053 0V0C29.2107 0.00556265 26.0528 1.22461 23.723 3.39022C21.3931 5.55582 20.0812 8.49151 20.0745 11.5545V28.4402C20.0745 28.4402 44.9276 25.8667 44.9304 11.5571V11.5545Z" fill="#AFB1B8"/>
<path d="M0.239502 33.9823C0.245476 36.1129 1.15829 38.1547 2.77848 39.6615C4.39866 41.1683 6.5945 42.0177 8.88615 42.0239C11.1773 42.0177 13.3727 41.1687 14.9928 39.6625C16.6129 38.1562 17.5261 36.1151 17.5328 33.9849V22.2356C17.5328 22.2356 0.239502 24.0276 0.239502 33.9823ZM8.88615 36.0874C8.43832 36.0874 8.00055 35.964 7.6282 35.7326C7.25584 35.5013 6.96563 35.1726 6.79425 34.7879C6.62287 34.4032 6.57803 33.98 6.6654 33.5716C6.75277 33.1632 6.96842 32.7881 7.28508 32.4937C7.60174 32.1993 8.00519 31.9988 8.44442 31.9176C8.88364 31.8364 9.33891 31.8781 9.75265 32.0374C10.1664 32.1967 10.52 32.4665 10.7688 32.8127C11.0176 33.1589 11.1504 33.5659 11.1504 33.9823C11.1515 34.2594 11.0938 34.534 10.9805 34.7903C10.8672 35.0466 10.7006 35.2796 10.4902 35.476C10.2799 35.6723 10.0299 35.828 9.75462 35.9343C9.47935 36.0406 9.18422 36.0953 8.88615 36.0953V36.0874Z" fill="#AFB1B8"/>
<path d="M26.3953 34.7812H24.7078V36.5244H23.8289V32.2588H26.6062V32.9707H24.7078V34.0723H26.3953V34.7812ZM30.6199 34.4883C30.6199 34.9082 30.5457 35.2764 30.3972 35.5928C30.2488 35.9092 30.0359 36.1533 29.7585 36.3252C29.4832 36.4971 29.1667 36.583 28.8093 36.583C28.4558 36.583 28.1404 36.498 27.863 36.3281C27.5857 36.1582 27.3708 35.916 27.2185 35.6016C27.0662 35.2852 26.989 34.9219 26.9871 34.5117V34.3008C26.9871 33.8809 27.0623 33.5117 27.2126 33.1934C27.365 32.873 27.5789 32.6279 27.8542 32.458C28.1316 32.2861 28.448 32.2002 28.8035 32.2002C29.1589 32.2002 29.4744 32.2861 29.7498 32.458C30.0271 32.6279 30.241 32.873 30.3914 33.1934C30.5437 33.5117 30.6199 33.8799 30.6199 34.2979V34.4883ZM29.7292 34.2949C29.7292 33.8477 29.6492 33.5078 29.489 33.2754C29.3289 33.043 29.1003 32.9268 28.8035 32.9268C28.5085 32.9268 28.281 33.042 28.1208 33.2725C27.9607 33.501 27.8796 33.8369 27.8777 34.2803V34.4883C27.8777 34.9238 27.9578 35.2617 28.1179 35.502C28.2781 35.7422 28.5085 35.8623 28.8093 35.8623C29.1042 35.8623 29.3308 35.7471 29.489 35.5166C29.6472 35.2842 29.7273 34.9463 29.7292 34.5029V34.2949ZM33.4705 35.4053C33.4705 35.2393 33.4119 35.1123 33.2947 35.0244C33.1775 34.9346 32.9666 34.8408 32.6619 34.7432C32.3572 34.6436 32.116 34.5459 31.9382 34.4502C31.4539 34.1885 31.2117 33.8359 31.2117 33.3926C31.2117 33.1621 31.2761 32.957 31.405 32.7773C31.5359 32.5957 31.7224 32.4541 31.9646 32.3525C32.2087 32.251 32.4822 32.2002 32.7849 32.2002C33.0896 32.2002 33.3611 32.2559 33.5994 32.3672C33.8376 32.4766 34.0222 32.6318 34.1531 32.833C34.2859 33.0342 34.3523 33.2627 34.3523 33.5186H33.4734C33.4734 33.3232 33.4119 33.1719 33.2888 33.0645C33.1658 32.9551 32.9929 32.9004 32.7703 32.9004C32.5554 32.9004 32.3884 32.9463 32.2693 33.0381C32.1501 33.1279 32.0906 33.2471 32.0906 33.3955C32.0906 33.5342 32.1599 33.6504 32.2986 33.7441C32.4392 33.8379 32.6453 33.9258 32.9167 34.0078C33.4167 34.1582 33.781 34.3447 34.0095 34.5674C34.238 34.79 34.3523 35.0674 34.3523 35.3994C34.3523 35.7686 34.2126 36.0586 33.9333 36.2695C33.6541 36.4785 33.2781 36.583 32.8054 36.583C32.4773 36.583 32.1785 36.5234 31.9089 36.4043C31.6394 36.2832 31.4333 36.1182 31.2908 35.9092C31.1501 35.7002 31.0798 35.458 31.0798 35.1826H31.9617C31.9617 35.6533 32.2429 35.8887 32.8054 35.8887C33.0144 35.8887 33.1775 35.8467 33.2947 35.7627C33.4119 35.6768 33.4705 35.5576 33.4705 35.4053ZM38.1609 32.9707H36.8542V36.5244H35.9753V32.9707H34.6863V32.2588H38.1609V32.9707ZM41.2312 34.6758H39.5437V35.8184H41.5242V36.5244H38.6648V32.2588H41.5183V32.9707H39.5437V33.9873H41.2312V34.6758ZM43.6189 34.9629H42.9187V36.5244H42.0398V32.2588H43.6248C44.1287 32.2588 44.5173 32.3711 44.7908 32.5957C45.0642 32.8203 45.2009 33.1377 45.2009 33.5479C45.2009 33.8389 45.1375 34.082 45.0105 34.2773C44.8855 34.4707 44.6951 34.625 44.4392 34.7402L45.3621 36.4834V36.5244H44.4187L43.6189 34.9629ZM42.9187 34.251H43.6277C43.8484 34.251 44.0193 34.1953 44.1404 34.084C44.2615 33.9707 44.322 33.8154 44.322 33.6182C44.322 33.417 44.2644 33.2588 44.1492 33.1436C44.0359 33.0283 43.8611 32.9707 43.6248 32.9707H42.9187V34.251ZM48.2449 35.0215V36.5244H47.366V32.2588H49.03C49.3503 32.2588 49.6316 32.3174 49.8738 32.4346C50.1179 32.5518 50.3054 32.7188 50.4363 32.9355C50.5671 33.1504 50.6326 33.3955 50.6326 33.6709C50.6326 34.0889 50.489 34.4189 50.2019 34.6611C49.9167 34.9014 49.5212 35.0215 49.0154 35.0215H48.2449ZM48.2449 34.3096H49.03C49.2625 34.3096 49.4392 34.2549 49.5603 34.1455C49.6833 34.0361 49.7449 33.8799 49.7449 33.6768C49.7449 33.4678 49.6833 33.2988 49.5603 33.1699C49.4373 33.041 49.2673 32.9746 49.0505 32.9707H48.2449V34.3096ZM53.8054 34.6758H52.1179V35.8184H54.0984V36.5244H51.239V32.2588H54.0925V32.9707H52.1179V33.9873H53.8054V34.6758ZM57.8835 32.9707H56.5769V36.5244H55.698V32.9707H54.4089V32.2588H57.8835V32.9707ZM60.9539 34.6758H59.2664V35.8184H61.2468V36.5244H58.3875V32.2588H61.241V32.9707H59.2664V33.9873H60.9539V34.6758ZM63.3416 34.9629H62.6414V36.5244H61.7625V32.2588H63.3474C63.8513 32.2588 64.24 32.3711 64.5134 32.5957C64.7869 32.8203 64.9236 33.1377 64.9236 33.5479C64.9236 33.8389 64.8601 34.082 64.7332 34.2773C64.6082 34.4707 64.4177 34.625 64.1619 34.7402L65.0847 36.4834V36.5244H64.1414L63.3416 34.9629ZM62.6414 34.251H63.3503C63.571 34.251 63.7419 34.1953 63.863 34.084C63.9841 33.9707 64.0447 33.8154 64.0447 33.6182C64.0447 33.417 63.9871 33.2588 63.8718 33.1436C63.7585 33.0283 63.5837 32.9707 63.3474 32.9707H62.6414V34.251ZM67.8064 35.4053C67.8064 35.2393 67.7478 35.1123 67.6306 35.0244C67.5134 34.9346 67.3025 34.8408 66.9978 34.7432C66.6931 34.6436 66.4519 34.5459 66.2742 34.4502C65.7898 34.1885 65.5476 33.8359 65.5476 33.3926C65.5476 33.1621 65.6121 32.957 65.741 32.7773C65.8718 32.5957 66.0583 32.4541 66.3005 32.3525C66.5447 32.251 66.8181 32.2002 67.1208 32.2002C67.4255 32.2002 67.697 32.2559 67.9353 32.3672C68.1736 32.4766 68.3582 32.6318 68.489 32.833C68.6218 33.0342 68.6882 33.2627 68.6882 33.5186H67.8093C67.8093 33.3232 67.7478 33.1719 67.6248 33.0645C67.5017 32.9551 67.3289 32.9004 67.1062 32.9004C66.8914 32.9004 66.7244 32.9463 66.6052 33.0381C66.4861 33.1279 66.4265 33.2471 66.4265 33.3955C66.4265 33.5342 66.4958 33.6504 66.6345 33.7441C66.7751 33.8379 66.9812 33.9258 67.2527 34.0078C67.7527 34.1582 68.1169 34.3447 68.3455 34.5674C68.574 34.79 68.6882 35.0674 68.6882 35.3994C68.6882 35.7686 68.5486 36.0586 68.2693 36.2695C67.99 36.4785 67.614 36.583 67.1414 36.583C66.8132 36.583 66.5144 36.5234 66.2449 36.4043C65.9753 36.2832 65.7693 36.1182 65.6267 35.9092C65.4861 35.7002 65.4158 35.458 65.4158 35.1826H66.2976C66.2976 35.6533 66.5789 35.8887 67.1414 35.8887C67.3503 35.8887 67.5134 35.8467 67.6306 35.7627C67.7478 35.6768 67.8064 35.5576 67.8064 35.4053Z" fill="#AFB1B8"/>
</svg>
