<svg width="47" height="50" viewBox="0 0 47 50" fill="none" xmlns="http://www.w3.org/2000/svg">
<path d="M6.39575 0L14.0554 6.91796H35.4223V26.2158L43.082 33.1338V0H6.39575Z" fill="#AFB1B8"/>
<path d="M0.106689 6.62646V38.8137H35.7447V26.0195L14.2813 6.63443L0.106689 6.62646ZM28.9558 34.1055H5.74597V12.4579H7.3866V32.6397H28.9558V34.1055Z" fill="#AFB1B8"/>
<path d="M10.2961 44.7837L11.114 43.0991H11.7976L10.6062 45.3452V46.6538H9.98608V45.3452L8.79224 43.0991H9.47827L10.2961 44.7837ZM13.8069 45.8262H12.4299L12.1418 46.6538H11.4998L12.8425 43.0991H13.3967L14.7419 46.6538H14.0974L13.8069 45.8262ZM12.6033 45.3281H13.6335L13.1184 43.8535L12.6033 45.3281ZM16.241 45.6943C16.241 45.5299 16.2857 45.3794 16.3752 45.2427C16.4648 45.1043 16.6414 44.9408 16.905 44.752C16.7667 44.5778 16.6698 44.4297 16.6145 44.3076C16.5608 44.1855 16.5339 44.0675 16.5339 43.9536C16.5339 43.6753 16.6186 43.4556 16.7878 43.2944C16.9571 43.1317 17.185 43.0503 17.4714 43.0503C17.7302 43.0503 17.9418 43.1268 18.1062 43.2798C18.2722 43.4312 18.3552 43.6191 18.3552 43.8438C18.3552 43.9919 18.3178 44.1286 18.2429 44.2539C18.1681 44.3776 18.0452 44.5013 17.8743 44.625L17.6326 44.8008L18.3186 45.6113C18.4179 45.416 18.4675 45.1987 18.4675 44.9595H18.9827C18.9827 45.3973 18.8801 45.7562 18.675 46.0361L19.1975 46.6538H18.509L18.3088 46.417C18.0549 46.6074 17.7522 46.7026 17.4006 46.7026C17.0491 46.7026 16.7675 46.6099 16.5559 46.4243C16.3459 46.2371 16.241 45.9938 16.241 45.6943ZM17.4177 46.229C17.6179 46.229 17.8051 46.1623 17.9792 46.0288L17.2029 45.1133L17.1272 45.167C16.9319 45.3151 16.8342 45.4844 16.8342 45.6748C16.8342 45.8392 16.8871 45.9727 16.9929 46.0752C17.0987 46.1777 17.2403 46.229 17.4177 46.229ZM17.0906 43.939C17.0906 44.0757 17.1744 44.2474 17.342 44.4541L17.613 44.2686L17.6887 44.2075C17.7896 44.118 17.8401 44.0033 17.8401 43.8633C17.8401 43.7705 17.8051 43.6916 17.7351 43.6265C17.6651 43.5597 17.5764 43.5264 17.469 43.5264C17.3534 43.5264 17.2615 43.5654 17.1931 43.6436C17.1248 43.7217 17.0906 43.8201 17.0906 43.939ZM23.5481 45.4966C23.5123 45.8758 23.3723 46.172 23.1282 46.3853C22.884 46.5968 22.5593 46.7026 22.1541 46.7026C21.8708 46.7026 21.621 46.6359 21.4045 46.5024C21.1897 46.3674 21.0237 46.1761 20.9065 45.9287C20.7893 45.6813 20.7283 45.394 20.7234 45.0669V44.7349C20.7234 44.3996 20.7828 44.1042 20.9016 43.8486C21.0204 43.5931 21.1905 43.3962 21.4119 43.2578C21.6348 43.1195 21.892 43.0503 22.1833 43.0503C22.5756 43.0503 22.8914 43.1569 23.1306 43.3701C23.3699 43.5833 23.509 43.8844 23.5481 44.2734H22.9329C22.9036 44.0179 22.8287 43.834 22.7083 43.7217C22.5894 43.6077 22.4145 43.5508 22.1833 43.5508C21.9148 43.5508 21.7081 43.6493 21.5632 43.8462C21.42 44.0415 21.3468 44.3288 21.3435 44.708V45.0229C21.3435 45.4071 21.4119 45.7 21.5486 45.9019C21.6869 46.1037 21.8888 46.2046 22.1541 46.2046C22.3966 46.2046 22.5789 46.1501 22.7009 46.041C22.823 45.932 22.9003 45.7505 22.9329 45.4966H23.5481ZM26.9392 44.9692C26.9392 45.3175 26.879 45.6235 26.7585 45.8872C26.6381 46.1493 26.4656 46.3511 26.241 46.4927C26.018 46.6326 25.7608 46.7026 25.4695 46.7026C25.1814 46.7026 24.9242 46.6326 24.698 46.4927C24.4734 46.3511 24.2992 46.1501 24.1755 45.8896C24.0535 45.6292 23.9916 45.3289 23.99 44.9888V44.7886C23.99 44.4419 24.051 44.1359 24.1731 43.8706C24.2968 43.6053 24.4701 43.4027 24.6931 43.2627C24.9177 43.1211 25.1749 43.0503 25.4646 43.0503C25.7543 43.0503 26.0107 43.1203 26.2336 43.2603C26.4583 43.3986 26.6316 43.5988 26.7537 43.8608C26.8757 44.1213 26.9376 44.4248 26.9392 44.7715V44.9692ZM26.3215 44.7837C26.3215 44.3898 26.2467 44.0879 26.0969 43.8779C25.9488 43.668 25.738 43.563 25.4646 43.563C25.1977 43.563 24.9885 43.668 24.8372 43.8779C24.6874 44.0863 24.6109 44.3817 24.6077 44.7642V44.9692C24.6077 45.3599 24.6833 45.6618 24.8347 45.875C24.9877 46.0882 25.1993 46.1948 25.4695 46.1948C25.7429 46.1948 25.9529 46.0907 26.0994 45.8823C26.2475 45.674 26.3215 45.3696 26.3215 44.9692V44.7837Z" fill="#AFB1B8"/>
</svg>
